REM DIRINDEX 1\2\4,1\2\5,1\3\6,1\3\7,1\3\8
REM DIRNAME folder01,folder02,folder03,folder04,folder05,folder06,folder07,folder08
TITLE ""
FILE "LV4_064_WORDS.mp3" MP3
  TRACK 01 AUDIO
    TITLE "0:"
    INDEX 01 00:00:00
  TRACK 02 AUDIO
    TITLE "6:cjc094_2246"
    INDEX 01 00:00:07
  TRACK 03 AUDIO
    TITLE "0:"
    INDEX 01 00:02:08
  TRACK 04 AUDIO
    TITLE "7:cjc094_2247"
    INDEX 01 00:02:71
  TRACK 05 AUDIO
    TITLE "0:"
    INDEX 01 00:04:09
  TRACK 06 AUDIO
    TITLE "8:cjc094_2248"
    INDEX 01 00:04:29
  TRACK 07 AUDIO
    TITLE "0:"
    INDEX 01 00:06:39
  TRACK 08 AUDIO
    TITLE "7:cjc094_2249"
    INDEX 01 00:07:17
  TRACK 09 AUDIO
    TITLE "0:"
    INDEX 01 00:08:34
  TRACK 10 AUDIO
    TITLE "8:cjc094_2250"
    INDEX 01 00:08:48
  TRACK 11 AUDIO
    TITLE "0:"
    INDEX 01 00:10:21
  TRACK 12 AUDIO
    TITLE "7:cjc094_2251"
    INDEX 01 00:10:72
  TRACK 13 AUDIO
    TITLE "0:"
    INDEX 01 00:12:14
  TRACK 14 AUDIO
    TITLE "8:cjc094_2252"
    INDEX 01 00:12:32
  TRACK 15 AUDIO
    TITLE "0:"
    INDEX 01 00:15:40
  TRACK 16 AUDIO
    TITLE "7:cjc094_2253"
    INDEX 01 00:16:14
  TRACK 17 AUDIO
    TITLE "0:"
    INDEX 01 00:17:16
  TRACK 18 AUDIO
    TITLE "8:cjc094_2254"
    INDEX 01 00:17:33
  TRACK 19 AUDIO
    TITLE "0:"
    INDEX 01 00:18:23
  TRACK 20 AUDIO
    TITLE "7:cjc094_2255"
    INDEX 01 00:19:01
  TRACK 21 AUDIO
    TITLE "0:"
    INDEX 01 00:20:04
  TRACK 22 AUDIO
    TITLE "8:cjc094_2256"
    INDEX 01 00:20:16
  TRACK 23 AUDIO
    TITLE "0:"
    INDEX 01 00:22:44
  TRACK 24 AUDIO
    TITLE "7:cjc094_2257"
    INDEX 01 00:23:12
  TRACK 25 AUDIO
    TITLE "0:"
    INDEX 01 00:24:08
  TRACK 26 AUDIO
    TITLE "8:cjc094_2258"
    INDEX 01 00:24:29
  TRACK 27 AUDIO
    TITLE "0:"
    INDEX 01 00:26:46
  TRACK 28 AUDIO
    TITLE "7:cjc094_2259"
    INDEX 01 00:27:24
  TRACK 29 AUDIO
    TITLE "0:"
    INDEX 01 00:28:33
  TRACK 30 AUDIO
    TITLE "8:cjc094_2260"
    INDEX 01 00:28:55
  TRACK 31 AUDIO
    TITLE "0:"
    INDEX 01 00:29:60
  TRACK 32 AUDIO
    TITLE "7:cjc094_2261"
    INDEX 01 00:30:40
  TRACK 33 AUDIO
    TITLE "0:"
    INDEX 01 00:31:45
  TRACK 34 AUDIO
    TITLE "8:cjc094_2262"
    INDEX 01 00:31:65
  TRACK 35 AUDIO
    TITLE "0:"
    INDEX 01 00:34:51
  TRACK 36 AUDIO
    TITLE "7:cjc094_2263"
    INDEX 01 00:35:23
  TRACK 37 AUDIO
    TITLE "0:"
    INDEX 01 00:36:38
  TRACK 38 AUDIO
    TITLE "8:cjc094_2264"
    INDEX 01 00:36:52
  TRACK 39 AUDIO
    TITLE "0:"
    INDEX 01 00:39:37
  TRACK 40 AUDIO
    TITLE "7:cjc094_2265"
    INDEX 01 00:40:13
  TRACK 41 AUDIO
    TITLE "0:"
    INDEX 01 00:41:36
  TRACK 42 AUDIO
    TITLE "8:cjc094_2266"
    INDEX 01 00:41:53
  TRACK 43 AUDIO
    TITLE "0:"
    INDEX 01 00:43:39
  TRACK 44 AUDIO
    TITLE "7:cjc094_2267"
    INDEX 01 00:44:12
  TRACK 45 AUDIO
    TITLE "0:"
    INDEX 01 00:45:24
  TRACK 46 AUDIO
    TITLE "8:cjc094_2268"
    INDEX 01 00:45:37
  TRACK 47 AUDIO
    TITLE "0:"
    INDEX 01 00:46:33
  TRACK 48 AUDIO
    TITLE "7:cjc094_2269"
    INDEX 01 00:47:09
  TRACK 49 AUDIO
    TITLE "0:"
    INDEX 01 00:48:26
  TRACK 50 AUDIO
    TITLE "8:cjc094_2270"
    INDEX 01 00:48:48
  TRACK 51 AUDIO
    TITLE "0:"
    INDEX 01 00:51:03
  TRACK 52 AUDIO
    TITLE "7:cjc094_2271"
    INDEX 01 00:51:54
  TRACK 53 AUDIO
    TITLE "0:"
    INDEX 01 00:52:55
  TRACK 54 AUDIO
    TITLE "8:cjc094_2272"
    INDEX 01 00:52:73
  TRACK 55 AUDIO
    TITLE "0:"
    INDEX 01 00:55:34
  TRACK 56 AUDIO
    TITLE "7:cjc094_2273"
    INDEX 01 00:56:04
  TRACK 57 AUDIO
    TITLE "0:"
    INDEX 01 00:57:05
  TRACK 58 AUDIO
    TITLE "8:cjc094_2274"
    INDEX 01 00:57:19
  TRACK 59 AUDIO
    TITLE "0:"
    INDEX 01 00:58:66
  TRACK 60 AUDIO
    TITLE "7:cjc094_2275"
    INDEX 01 00:59:41
  TRACK 61 AUDIO
    TITLE "0:"
    INDEX 01 01:00:53
  TRACK 62 AUDIO
    TITLE "8:cjc094_2276"
    INDEX 01 01:00:72
  TRACK 63 AUDIO
    TITLE "0:"
    INDEX 01 01:05:01
